Sprint_06300001_forces_filt15Hz.mot
version=1
nRows=38
nColumns=19
inDegrees=yes
endheader
time	R_ground_force_vx	R_ground_force_vy	R_ground_force_vz	R_ground_force_px	R_ground_force_py	R_ground_force_pz	R_ground_torque_x	R_ground_torque_y	R_ground_torque_z	L_ground_force_vx	L_ground_force_vy	L_ground_force_vz	L_ground_force_px	L_ground_force_py	L_ground_force_pz	L_ground_torque_x	L_ground_torque_y	L_ground_torque_z	
2.692000	  0.000000	  0.000000	  0.000000	  1.152814	  0.000000	 -0.274125	  0.000000	  0.000000	  0.000000	  0.000000	  0.000000	  0.000000	  0.104525	  0.000000	 -0.299453	  0.000000	  0.000000	  0.000000
2.692500	  0.000000	  0.000000	  0.000000	  1.153828	  0.000000	 -0.274271	  0.000000	  0.000000	  0.000000	  0.000000	  0.000000	  0.000000	  0.103669	  0.000000	 -0.299148	  0.000000	  0.000000	  0.000000
2.693000	  0.000000	  0.000000	  0.000000	  1.154843	  0.000000	 -0.274417	  0.000000	  0.000000	  0.000000	  0.000000	  0.000000	  0.000000	  0.102812	  0.000000	 -0.298843	  0.000000	  0.000000	  0.000000
2.693500	  0.000000	  0.000000	  0.000000	  1.155857	  0.000000	 -0.274563	  0.000000	  0.000000	  0.000000	  0.000000	  0.000000	  0.000000	  0.101956	  0.000000	 -0.298538	  0.000000	  0.000000	  0.000000
2.694000	  0.000000	  0.000000	  0.000000	  1.156872	  0.000000	 -0.274708	  0.000000	  0.000000	  0.000000	  0.000000	  0.000000	  0.000000	  0.101099	  0.000000	 -0.298233	  0.000000	  0.000000	  0.000000
2.694500	  0.000000	  0.000000	  0.000000	  1.157887	  0.000000	 -0.274854	  0.000000	  0.000000	  0.000000	  0.000000	  0.000000	  0.000000	  0.100243	  0.000000	 -0.297928	  0.000000	  0.000000	  0.000000
2.695000	  0.000000	  0.000000	  0.000000	  1.158901	  0.000000	 -0.275000	  0.000000	  0.000000	  0.000000	  0.000000	  0.000000	  0.000000	  0.099386	  0.000000	 -0.297622	  0.000000	  0.000000	  0.000000
2.695500	  0.000000	  0.000000	  0.000000	  1.159598	  0.000000	 -0.275116	  0.000000	  0.000000	  0.000000	  0.000000	  0.000000	  0.000000	  0.098750	  0.000000	 -0.297486	  0.000000	  0.000000	  0.000000
2.696000	  0.000000	  0.000000	  0.000000	  1.160294	  0.000000	 -0.275233	  0.000000	  0.000000	  0.000000	  0.000000	  0.000000	  0.000000	  0.098114	  0.000000	 -0.297350	  0.000000	  0.000000	  0.000000
2.696500	  0.000000	  0.000000	  0.000000	  1.160991	  0.000000	 -0.275350	  0.000000	  0.000000	  0.000000	  0.000000	  0.000000	  0.000000	  0.097478	  0.000000	 -0.297213	  0.000000	  0.000000	  0.000000
2.697000	  0.000000	  0.000000	  0.000000	  1.161688	  0.000000	 -0.275466	  0.000000	  0.000000	  0.000000	  0.000000	  0.000000	  0.000000	  0.096842	  0.000000	 -0.297077	  0.000000	  0.000000	  0.000000
2.697500	  0.000000	  0.000000	  0.000000	  1.162384	  0.000000	 -0.275583	  0.000000	  0.000000	  0.000000	  0.000000	  0.000000	  0.000000	  0.096205	  0.000000	 -0.296940	  0.000000	  0.000000	  0.000000
2.698000	  0.000000	  0.000000	  0.000000	  1.163081	  0.000000	 -0.275699	  0.000000	  0.000000	  0.000000	  0.000000	  0.000000	  0.000000	  0.095569	  0.000000	 -0.296804	  0.000000	  0.000000	  0.000000
2.698500	  0.000000	  0.000000	  0.000000	  1.163778	  0.000000	 -0.275816	  0.000000	  0.000000	  0.000000	  0.000000	  0.000000	  0.000000	  0.094933	  0.000000	 -0.296668	  0.000000	  0.000000	  0.000000
2.699000	  0.000000	  0.000000	  0.000000	  1.164474	  0.000000	 -0.275933	  0.000000	  0.000000	  0.000000	  0.000000	  0.000000	  0.000000	  0.094297	  0.000000	 -0.296531	  0.000000	  0.000000	  0.000000
2.699500	  0.000000	  0.000000	  0.000000	  1.165171	  0.000000	 -0.276049	  0.000000	  0.000000	  0.000000	  0.000000	  0.000000	  0.000000	  0.093661	  0.000000	 -0.296395	  0.000000	  0.000000	  0.000000
2.700000	  0.000000	  0.000000	  0.000000	  1.165867	  0.000000	 -0.276166	  0.000000	  0.000000	  0.000000	  0.000000	  0.000000	  0.000000	  0.093025	  0.000000	 -0.296258	  0.000000	  0.000000	  0.000000
2.700500	  0.000000	  0.000000	  0.000000	  1.166245	  0.000000	 -0.276321	  0.000000	  0.000000	  0.000000	  0.000000	  0.000000	  0.000000	  0.092640	  0.000000	 -0.296220	  0.000000	  0.000000	  0.000000
2.701000	  0.000000	  0.000000	  0.000000	  1.166622	  0.000000	 -0.276476	  0.000000	  0.000000	  0.000000	  0.000000	  0.000000	  0.000000	  0.092255	  0.000000	 -0.296183	  0.000000	  0.000000	  0.000000
2.701500	  0.000000	  0.000000	  0.000000	  1.166999	  0.000000	 -0.276631	  0.000000	  0.000000	  0.000000	  0.000000	  0.000000	  0.000000	  0.091870	  0.000000	 -0.296145	  0.000000	  0.000000	  0.000000
2.702000	  0.000000	  0.000000	  0.000000	  1.167376	  0.000000	 -0.276786	  0.000000	  0.000000	  0.000000	  0.000000	  0.000000	  0.000000	  0.091485	  0.000000	 -0.296107	  0.000000	  0.000000	  0.000000
2.702500	  0.000000	  0.000000	  0.000000	  1.167753	  0.000000	 -0.276941	  0.000000	  0.000000	  0.000000	  0.000000	  0.000000	  0.000000	  0.091099	  0.000000	 -0.296069	  0.000000	  0.000000	  0.000000
2.703000	  0.000000	  0.000000	  0.000000	  1.168130	  0.000000	 -0.277097	  0.000000	  0.000000	  0.000000	  0.000000	  0.000000	  0.000000	  0.090714	  0.000000	 -0.296031	  0.000000	  0.000000	  0.000000
2.703500	  0.000000	  0.000000	  0.000000	  1.168507	  0.000000	 -0.277252	  0.000000	  0.000000	  0.000000	  0.000000	  0.000000	  0.000000	  0.090329	  0.000000	 -0.295993	  0.000000	  0.000000	  0.000000
2.704000	  0.000000	  0.000000	  0.000000	  1.168884	  0.000000	 -0.277407	  0.000000	  0.000000	  0.000000	  0.000000	  0.000000	  0.000000	  0.089944	  0.000000	 -0.295955	  0.000000	  0.000000	  0.000000
2.704500	  0.000000	  0.000000	  0.000000	  1.169262	  0.000000	 -0.277562	  0.000000	  0.000000	  0.000000	  0.000000	  0.000000	  0.000000	  0.089559	  0.000000	 -0.295917	  0.000000	  0.000000	  0.000000
2.705000	  0.000000	  0.000000	  0.000000	  1.169639	  0.000000	 -0.277717	  0.000000	  0.000000	  0.000000	  0.000000	  0.000000	  0.000000	  0.089174	  0.000000	 -0.295880	  0.000000	  0.000000	  0.000000
2.705500	  0.000000	  0.000000	  0.000000	  1.169745	  0.000000	 -0.277891	  0.000000	  0.000000	  0.000000	  0.000000	  0.000000	  0.000000	  0.089038	  0.000000	 -0.295784	  0.000000	  0.000000	  0.000000
2.706000	  0.000000	  0.000000	  0.000000	  1.169851	  0.000000	 -0.278064	  0.000000	  0.000000	  0.000000	  0.000000	  0.000000	  0.000000	  0.088901	  0.000000	 -0.295689	  0.000000	  0.000000	  0.000000
2.706500	  0.000000	  0.000000	  0.000000	  1.169957	  0.000000	 -0.278238	  0.000000	  0.000000	  0.000000	  0.000000	  0.000000	  0.000000	  0.088765	  0.000000	 -0.295594	  0.000000	  0.000000	  0.000000
2.707000	  0.000000	  0.000000	  0.000000	  1.170064	  0.000000	 -0.278411	  0.000000	  0.000000	  0.000000	  0.000000	  0.000000	  0.000000	  0.088628	  0.000000	 -0.295499	  0.000000	  0.000000	  0.000000
2.707500	  0.000000	  0.000000	  0.000000	  1.170170	  0.000000	 -0.278585	  0.000000	  0.000000	  0.000000	  0.000000	  0.000000	  0.000000	  0.088492	  0.000000	 -0.295404	  0.000000	  0.000000	  0.000000
2.708000	  0.000000	  0.000000	  0.000000	  1.170276	  0.000000	 -0.278758	  0.000000	  0.000000	  0.000000	  0.000000	  0.000000	  0.000000	  0.088355	  0.000000	 -0.295309	  0.000000	  0.000000	  0.000000
2.708500	  0.000000	  0.000000	  0.000000	  1.170382	  0.000000	 -0.278932	  0.000000	  0.000000	  0.000000	  0.000000	  0.000000	  0.000000	  0.088219	  0.000000	 -0.295214	  0.000000	  0.000000	  0.000000
2.709000	  0.000000	  0.000000	  0.000000	  1.170489	  0.000000	 -0.279106	  0.000000	  0.000000	  0.000000	  0.000000	  0.000000	  0.000000	  0.088082	  0.000000	 -0.295119	  0.000000	  0.000000	  0.000000
2.709500	  0.000000	  0.000000	  0.000000	  1.170595	  0.000000	 -0.279279	  0.000000	  0.000000	  0.000000	  0.000000	  0.000000	  0.000000	  0.087946	  0.000000	 -0.295023	  0.000000	  0.000000	  0.000000
2.710000	  0.000000	  0.000000	  0.000000	  1.170701	  0.000000	 -0.279453	  0.000000	  0.000000	  0.000000	  0.000000	  0.000000	  0.000000	  0.087809	  0.000000	 -0.294928	  0.000000	  0.000000	  0.000000
2.710500	  0.000000	  0.000000	  0.000000	  1.170504	  0.000000	 -0.279665	  0.000000	  0.000000	  0.000000	  0.000000	  0.000000	  0.000000	  0.087911	  0.000000	 -0.294936	  0.000000	  0.000000	  0.000000
